#!OML:ASF H:\Terrain\Patient Classification 1\Takeo\Monday\TakeoMonday.ASF
:FULLY-SPECIFIED
:DEGREES
1
root 10.0061 17.8631 -0.260174 -7.11941 -9.58585 -0.224161
lowerback 2.77838 -1.35387 1.29062
upperback 2.042 -1.78321 0.782922
thorax 0.521221 -0.885266 0.119338
lowerneck -8.83921 -7.32982 -5.89886
upperneck 5.62288 -9.4077 3.91626
head 3.96611 -4.62539 1.73998
rclavicle -4.52981e-014 1.35174e-014
rhumerus -44.5119 8.51499 -89.5888
rradius 52.0987
rwrist -21.3257
rhand -23.1739 14.9158
rfingers 7.12502
rthumb 3.27516 -15.0388
lclavicle -4.52981e-014 1.35174e-014
lhumerus -34.4687 14.8362 84.3676
lradius 31.5398
lwrist 25.3852
lhand -18.5659 21.9689
lfingers 7.12502
lthumb 7.72412 51.8078
rfemur 9.13767 3.59679 19.9538
rtibia 10.7055
rfoot -10.1767 -15.5909
rtoes -1.35592
lfemur 7.4229 -0.377035 -20.6154
ltibia 16.0404
lfoot -14.6119 19.9392
ltoes -1.74452
2
root 10.0122 17.8621 -0.259952 -7.09548 -9.56867 -0.313359
lowerback 2.76965 -1.37296 1.43719
upperback 2.05758 -1.80602 0.758121
thorax 0.536717 -0.894893 0.0121275
lowerneck -9.18138 -7.48409 -5.68273
upperneck 6.29496 -9.62988 3.83709
head 3.82494 -4.71777 1.46857
rclavicle 1.95182e-014 1.03368e-014
rhumerus -44.9877 8.75957 -89.7204
rradius 53.4065
rwrist -21.4537
rhand -22.953 15.1861
rfingers 7.12502
rthumb 3.4885 -14.7651
lclavicle 1.95182e-014 1.03368e-014
lhumerus -34.5995 14.7957 84.273
lradius 31.3827
lwrist 25.455
lhand -18.2244 22.4934
lfingers 7.12502
lthumb 8.05375 52.3199
rfemur 9.04489 3.65812 20.0378
rtibia 10.8071
rfoot -10.2168 -15.6358
rtoes -0.948705
lfemur 7.43027 -0.407411 -20.5602
ltibia 15.9465
lfoot -14.399 20.0684
ltoes -1.8505
3
root 10.0165 17.8669 -0.257004 -7.05034 -9.60314 0.156612
lowerback 2.62992 -1.39603 0.940276
upperback 2.03727 -1.84843 0.635113
thorax 0.604812 -0.920225 0.161516
lowerneck -9.63674 -7.54553 -5.51453
upperneck 6.75826 -9.69584 3.55019
head 4.02063 -4.75347 1.32559
rclavicle -1.28092e-014 8.74653e-015
rhumerus -45.3417 9.08837 -89.8563
rradius 54.527
rwrist -21.5179
rhand -22.4873 15.6603
rfingers 7.12502
rthumb 3.93818 -14.283
lclavicle -1.28092e-014 8.74653e-015
lhumerus -34.8108 15.2479 84.0365
lradius 31.2153
lwrist 25.15
lhand -19.1103 21.8622
lfingers 7.12502
lthumb 7.19869 51.7198
rfemur 8.66069 3.72062 19.5033
rtibia 11.3093
rfoot -10.4133 -15.5932
rtoes -0.140537
lfemur 7.46082 -0.679245 -21.1381
ltibia 15.5998
lfoot -14.621 20.1898
ltoes -0.391398
4
root 10.0203 17.8657 -0.253982 -7.03284 -9.61809 0.579109
lowerback 2.48944 -1.44717 0.426942
upperback 2.03969 -1.92761 0.616929
thorax 0.701626 -0.965085 0.427429
lowerneck -9.87864 -7.61004 -5.59735
upperneck 7.07454 -9.7414 3.29357
head 4.14967 -4.78787 1.2418
rclavicle 4.01918e-014 -1.43125e-014
rhumerus -45.6509 9.68889 -89.9497
rradius 55.7543
rwrist -21.7391
rhand -22.2594 15.9771
rfingers 7.12502
rthumb 4.15824 -13.962
lclavicle 4.01918e-014 -1.43125e-014
lhumerus -35.0088 16.1385 83.7701
lradius 30.9844
lwrist 24.5311
lhand -19.8998 20.6628
lfingers 7.12502
lthumb 6.4365 50.545
rfemur 8.45871 3.63548 18.9938
rtibia 11.5572
rfoot -10.4721 -15.5272
rtoes -0.0832743
lfemur 7.49811 -0.757318 -21.626
ltibia 15.4098
lfoot -14.9097 20.108
ltoes 0.781621
5
root 10.0219 17.8642 -0.252094 -7.13352 -9.61522 0.489801
lowerback 2.57034 -1.46036 0.454265
upperback 2.08124 -1.94497 0.736667
thorax 0.702384 -0.974396 0.536545
lowerneck -9.65266 -7.79683 -6.17951
upperneck 7.03227 -9.94827 3.52735
head 4.15011 -4.89582 1.39321
rclavicle -2.14936e-014 1.90833e-014
rhumerus -46.1291 10.1287 -89.9668
rradius 57.2768
rwrist -21.9035
rhand -22.1719 16.3067
rfingers 7.12502
rthumb 4.24278 -13.6308
lclavicle -2.14936e-014 1.90833e-014
lhumerus -35.3029 16.7304 83.6503
lradius 30.9175
lwrist 23.9079
lhand -19.6742 20.3564
lfingers 7.12502
lthumb 6.65437 50.2319
rfemur 8.51353 3.57613 19.0764
rtibia 11.7429
rfoot -10.6904 -15.4793
rtoes -0.592026
lfemur 7.70945 -0.627532 -21.5113
ltibia 15.2982
lfoot -14.8796 19.9948
ltoes 0.524476
6
root 10.0211 17.8671 -0.252842 -7.09303 -9.60276 0.56086
lowerback 2.56456 -1.45462 0.328771
upperback 2.01013 -1.93897 0.771898
thorax 0.638051 -0.972909 0.643648
lowerneck -9.00974 -7.8511 -6.81185
upperneck 6.56743 -10.0286 4.16431
head 3.97255 -4.92816 1.70807
rclavicle -1.63376e-014 -3.97569e-015
rhumerus -46.7572 10.5722 -90.1323
rradius 58.8137
rwrist -22.0309
rhand -22.2242 16.9346
rfingers 7.12502
rthumb 4.19231 -13.0039
lclavicle -1.63376e-014 -3.97569e-015
lhumerus -35.4994 16.7925 83.6457
lradius 30.6388
lwrist 23.6341
lhand -18.934 21.2094
lfingers 7.12502
lthumb 7.36887 51.061
rfemur 8.44891 3.62216 19.0034
rtibia 11.7568
rfoot -10.8145 -15.4729
rtoes -0.58866
lfemur 7.60122 -0.54648 -21.5692
ltibia 15.3454
lfoot -14.656 20.0396
ltoes -0.136896
7
root 10.0211 17.8697 -0.257488 -6.91021 -9.63624 0.43379
lowerback 2.49668 -1.53689 0.381121
upperback 1.95291 -2.04785 0.816992
thorax 0.61819 -1.02703 0.661584
lowerneck -8.94713 -7.74337 -6.73219
upperneck 6.45372 -9.90695 4.29512
head 3.92407 -4.86078 1.74943
rclavicle -1.38901e-014 -1.23246e-014
rhumerus -47.2807 11.4649 -90.6162
rradius 60.3703
rwrist -22.3385
rhand -22.7208 17.5196
rfingers 7.12502
rthumb 3.71275 -12.4278
lclavicle -1.38901e-014 -1.23246e-014
lhumerus -35.5708 17.087 83.4329
lradius 30.2053
lwrist 23.5612
lhand -18.3832 22.0112
lfingers 7.12502
lthumb 7.90052 51.8436
rfemur 8.29699 3.70846 19.1623
rtibia 11.6408
rfoot -10.7571 -15.5117
rtoes -0.396143
lfemur 7.31022 -0.555512 -21.4215
ltibia 15.5078
lfoot -14.523 20.1234
ltoes -0.480199
8
root 10.0278 17.8682 -0.261734 -6.97684 -9.69247 0.221013
lowerback 2.71907 -1.62857 0.588588
upperback 1.99255 -2.16446 0.866374
thorax 0.529868 -1.08375 0.604719
lowerneck -9.40462 -7.66441 -6.40214
upperneck 6.8317 -9.80183 4.04849
head 4.07945 -4.80618 1.60857
rclavicle -1.28092e-014 1.31198e-014
rhumerus -47.8109 12.4151 -91.1658
rradius 62.1503
rwrist -22.9211
rhand -23.5867 18.6486
rfingers 7.12502
rthumb 2.87647 -11.3118
lclavicle -1.28092e-014 1.31198e-014
lhumerus -35.5218 17.5668 83.1434
lradius 29.5262
lwrist 23.5251
lhand -18.8548 21.3606
lfingers 7.12502
lthumb 7.4453 51.2095
rfemur 8.42851 3.68897 19.3833
rtibia 11.5388
rfoot -10.6828 -15.4469
rtoes -0.982842
lfemur 7.33967 -0.585354 -21.2175
ltibia 15.675
lfoot -14.608 20.1593
ltoes -0.566979
9
root 10.0326 17.8692 -0.267308 -7.05464 -9.71731 0.223637
lowerback 2.9488 -1.65953 0.588406
upperback 1.95956 -2.20252 0.877039
thorax 0.368375 -1.103 0.62466
lowerneck -9.48739 -7.63852 -6.46231
upperneck 7.02771 -9.76716 4.11953
head 4.15792 -4.7858 1.63474
rclavicle 8.98258e-015 -3.97569e-016
rhumerus -48.4484 13.1245 -91.625
rradius 63.9462
rwrist -23.464
rhand -24.3749 20.3266
rfingers 7.12502
rthumb 2.11528 -9.64263
lclavicle 8.98258e-015 -3.97569e-016
lhumerus -35.5002 17.8413 82.9448
lradius 28.7683
lwrist 23.4622
lhand -19.7297 20.1803
lfingers 7.12502
lthumb 6.60081 50.0574
rfemur 8.57058 3.70496 19.3796
rtibia 11.3288
rfoot -10.4569 -15.5381
rtoes -1.6327
lfemur 7.28399 -0.574303 -21.2312
ltibia 15.9055
lfoot -14.6556 20.1657
ltoes -0.279421
10
root 10.033 17.8735 -0.269885 -7.04159 -9.76643 0.174433
lowerback 3.02685 -1.67553 0.596186
upperback 1.93071 -2.22237 0.928977
thorax 0.297129 -1.11321 0.677069
lowerneck -9.50997 -7.63375 -6.79554
upperneck 7.23474 -9.7595 4.49382
head 4.26047 -4.77107 1.79387
rclavicle -2.10588e-014 6.75868e-015
rhumerus -49.0261 13.8561 -92.0135
rradius 65.6915
rwrist -23.6123
rhand -24.9266 21.517
rfingers 7.12502
rthumb 1.58241 -8.45692
lclavicle -2.10588e-014 6.75868e-015
lhumerus -35.68 18.3021 82.6942
lradius 28.467
lwrist 23.0818
lhand -19.1491 20.7248
lfingers 7.12502
lthumb 7.16127 50.5836
rfemur 8.67596 3.77599 19.458
rtibia 11.0426
rfoot -10.2332 -15.6598
rtoes -1.7494
lfemur 7.12638 -0.605047 -21.1767
ltibia 16.175
lfoot -14.7929 20.2032
ltoes -0.100157
